<svg width="1920" height="10000" viewBox="0 0 1920 10000" fill="none" xmlns="http://www.w3.org/2000/svg">
<g clip-path="url(#clip0_1_2)">
<rect width="1920" height="10000" fill="#3DB4C6"/>
<ellipse cx="846.558" cy="1052.04" rx="1216.88" ry="1131.6" fill="#236D65"/>
<ellipse cx="502.069" cy="1180.06" rx="1222.53" ry="1312.45" fill="#237A72"/>
<ellipse cx="88.5515" cy="1395.73" rx="1222.53" ry="1312.45" fill="#26867D"/>
<ellipse cx="-7.23505" cy="7603.82" rx="1561.69" ry="1531.46" transform="rotate(-104.641 -7.23505 7603.82)" fill="#236D65"/>
<ellipse cx="272.138" cy="7987.77" rx="1568.93" ry="1776.21" transform="rotate(-104.641 272.138 7987.77)" fill="#237A72"/>
<ellipse cx="688.676" cy="8427.45" rx="1568.93" ry="1776.21" transform="rotate(-104.641 688.676 8427.45)" fill="#26867D"/>
<ellipse cx="1185.06" cy="8626.87" rx="1568.93" ry="1776.21" transform="rotate(-104.641 1185.06 8626.87)" fill="#268C82"/>
<ellipse cx="1700.71" cy="4621.63" rx="2609.91" ry="2559.39" transform="rotate(-180 1700.71 4621.63)" fill="#236D65"/>
<ellipse cx="2439.55" cy="4332.09" rx="2622.01" ry="2968.42" transform="rotate(-180 2439.55 4332.09)" fill="#237A72"/>
<ellipse cx="3326.44" cy="3844.3" rx="2622.01" ry="2968.42" transform="rotate(-180 3326.44 3844.3)" fill="#26867D"/>
<ellipse cx="3858.57" cy="3125.92" rx="2622.01" ry="2968.42" transform="rotate(-180 3858.57 3125.92)" fill="#268C82"/>
</g>
<defs>
<clipPath id="clip0_1_2">
<rect width="1920" height="10000" fill="white"/>
</clipPath>
</defs>
</svg>
