<svg width="60" height="137" viewBox="0 0 60 137" fill="none" xmlns="http://www.w3.org/2000/svg">
<g id="grass">
<path id="Vector-1" d="M2.5155 44.262C-4.44543 62.3605 6.74504 106.783 13.2709 126.506C26.3227 143.908 45.2012 135.482 50.4851 128.153C54.6489 122.378 52.1669 122.47 49.1215 121.165C59.5629 92.8861 60.8142 -3.87791 58.203 2.9315C52.3463 18.2044 41.8158 81.8221 32.5345 117.787C29.9242 94.2938 45.5863 -25.3473 29.4891 5.97689C16.6114 31.0363 19.4828 94.1487 22.5282 122.573C13.827 105.866 12.8119 49.1927 13.392 22.9442C12.6669 22.5091 9.47643 26.1636 2.5155 44.262Z" fill="#199738"/>
<path id="Vector-2" d="M3.81561 66.3108C6.53594 81.0842 11.0434 112.612 15.8711 127.99C25.5266 141.559 49.0216 131.383 49.0216 127.99C49.0216 125.277 49.1692 122.563 46.9163 121.545C54.6406 99.4959 55.5703 26.01 54.9764 32.0339C54.5321 36.5409 36.8986 93.503 30.0325 121.545C28.1014 103.227 39.6879 9.94174 27.7795 34.3656C18.2528 53.9047 20.377 103.114 22.6299 125.277C16.1929 112.251 8.13773 61.6633 8.56687 41.197C8.03045 40.8578 0.654767 49.145 3.81561 66.3108Z" fill="#21482B"/>
<path id="Vector-3" d="M10.2885 90.9642C13.9918 102.021 13.3114 119.313 17.3172 128.936C25.3286 137.427 44.8233 131.059 44.8233 128.936C44.8233 127.238 45.406 124.231 43.5367 123.594C49.9459 109.797 52.2747 54.5859 51.1998 58.5812C50.4414 61.4005 42.5479 111.111 30.0644 128.044C26.7272 116.796 30.2785 46.4496 25.5356 64.02C21.8025 77.8496 22.3088 115.068 24.1781 128.936C18.8371 120.785 5.7154 67.1095 6.45697 54.1317C6.01188 53.9194 6.7969 80.539 10.2885 90.9642Z" fill="#5CC424"/>
</g>
</svg>
