<svg width="427" height="224" viewBox="0 0 427 224" fill="none" xmlns="http://www.w3.org/2000/svg">
<path d="M377.631 88.4412C379.303 87.2196 381.206 84.6529 381.92 83.0859C382.133 84.6808 381.477 87.4674 379.861 89.2202C382.515 87.0201 385.892 84.0615 385.18 82.1452C387.155 83.3821 388.917 87.0432 384.291 88.7298C379.664 90.4163 378.947 90.6799 379.167 90.6008C382.259 90.5252 386.412 90.0678 388.688 87.7751C387.815 92.0184 385.104 94.5252 381.265 93.08C377.426 91.6348 377.243 89.3853 377.631 88.4412Z" fill="#74BF19" stroke="#74BF19"/>
<path d="M371.125 91.6001C370.713 89.5712 369.175 86.7705 368.048 85.4684C369.587 85.9397 371.845 87.6987 372.764 89.8988C371.872 86.5686 370.593 82.265 368.554 82.1132C370.502 80.8345 374.564 80.7605 374.166 85.6687C373.769 90.5769 373.709 91.3382 373.729 91.1054C374.95 88.2642 376.268 84.2987 375.134 81.274C378.626 83.8376 379.773 87.3478 376.857 90.2334C373.942 93.1191 371.821 92.3469 371.125 91.6001Z" fill="#74BF19" stroke="#74BF19"/>
<path d="M363.345 94.5187C361.792 93.1494 358.875 91.8437 357.191 91.4847C358.703 90.9325 361.565 90.9728 363.625 92.1735C360.905 90.0554 357.288 87.3949 355.57 88.5038C356.353 86.3087 359.548 83.799 362.192 87.9536C364.835 92.1081 365.247 92.7513 365.123 92.5535C364.383 89.5507 363.041 85.5933 360.312 83.865C364.644 83.803 367.676 85.9109 367.092 89.9709C366.507 94.031 364.35 94.6945 363.345 94.5187Z" fill="#74BF19" stroke="#74BF19"/>
<path d="M43.5644 124.951C42.1348 123.808 38.4181 122.206 34.9873 124.951C37.0233 122.734 41.379 118.953 43.2822 120.633C40.9515 118.102 36.0246 114.469 32.843 118.089C34.8876 115.662 39.5137 112.114 43.1679 115.146C40.3491 112.314 35.3724 108.719 30.9847 110.084C24.5519 112.086 43.4214 102.222 45.7086 111.085C45.8516 108.988 45.3941 104.623 42.4207 103.937C43.5644 104.176 46.309 104.681 48.1388 104.795L48.4879 104.206C48.0233 102.728 44.5308 98.8322 42.4207 96.6468C45.1585 96.7837 50.4131 97.7595 50.4522 100.553C50.6704 96.8216 50.017 89.9412 45.7086 89.4993C49.9495 86.6879 57.6307 83.7526 54.4286 94.5026C56.2394 91.3576 59.0317 84.3244 55.7152 81.3511C51.6883 77.7407 61.959 84.1118 60.8471 89.0653C62.2257 84.2621 63.3736 75.2338 57.7165 74.3465C50.443 73.2055 73.6186 65.9463 65.7773 85.2181C67.0579 82.1123 70.3462 75.6602 73.727 73.6317C72.5358 74.9659 70.0961 78.635 69.8674 82.6376C73.125 78.2377 79.0721 69.751 79.6446 67.2626C79.3578 66.5006 79.1843 66.2682 79.588 66.6271C79.7035 66.7297 79.7169 66.9483 79.6446 67.2626C80.2716 68.9285 81.4403 73.1254 78.3015 79.2068C81.4464 77.7773 87.336 74.4894 85.7349 72.774C86.5926 73.5364 87.7934 75.6044 85.7349 77.7773C89.4993 77.4914 96.5992 76.0905 94.8838 72.774C96.361 73.6793 99.058 75.9475 98.0287 77.7773C99.347 75.7175 101.356 71.6632 100.324 69.8637C100.193 69.7352 100.064 69.6136 99.9398 69.4996C98.778 68.8955 97.3321 68.1197 99.6012 69.2002C99.8192 69.304 99.9972 69.44 100.14 69.6033C100.21 69.6837 100.271 69.7707 100.324 69.8637C102.181 71.6806 104.567 74.8829 103.526 77.3664C104.689 75.1176 107.173 70.9804 109.322 69.6033C112.181 67.7707 103.604 76.3478 106.463 77.7773L106.961 77.8904C109.423 77.865 113.37 70.2157 113.994 67.539C113.728 66.9626 113.626 66.6271 113.896 66.6271C114.109 66.6271 114.126 66.9711 113.994 67.539C114.887 69.475 117.618 74.1289 114.214 77.9171C116.602 75.7671 119.679 72.7941 120.922 70.9461C121.116 70.4518 121.303 69.9985 121.473 69.6033C121.519 69.9017 121.31 70.369 120.922 70.9461C119.589 74.3366 117.901 79.6543 118.9 81.3511C120.71 80.0645 124.189 77.1769 123.617 75.9189C124.904 76.9672 126.533 79.9501 122.759 83.4953C127.476 82.7555 136.634 80.6517 136.65 78.0199C136.642 77.9376 136.634 77.8567 136.626 77.7773C136.642 77.8586 136.651 77.9395 136.65 78.0199C136.949 81.2156 136.535 86.5252 133.363 88.1121L143.773 86.7832C139.822 87.85 133.244 90.3319 133.263 92.909L134.451 94.6999C138.157 97.3854 142.189 92.9652 143.773 90.357C143.015 93.4725 141.231 99.3408 139.563 100.665C141.973 100.117 148.35 98.6593 148.432 95.6004C148.368 95.2055 148.29 94.8363 148.205 94.5026C148.37 94.8896 148.441 95.2552 148.432 95.6004C149.007 99.1524 148.456 104.789 142.487 105.51C144.969 106.006 149.956 106.691 151.059 105.693C151.335 105.263 151.417 105.124 151.207 105.51C151.17 105.576 151.121 105.637 151.059 105.693C150.212 107.014 147.535 111.085 145.917 111.085C147.774 111.246 151.263 111.052 152.497 109.322C152.657 108.928 152.799 108.559 152.922 108.226C152.869 108.646 152.72 109.009 152.497 109.322C151.243 112.412 148.915 117.049 146.668 118.251C148.608 117.805 152.221 117.029 154.637 116.517C152.16 117.518 146.947 119.805 145.917 120.948L154.637 120.091C151.921 120.424 146.661 121.863 147.347 124.951C147.9 127.439 150.531 126.011 152.505 124.39C152.972 123.941 153.408 123.55 153.78 123.236C153.419 123.597 152.981 123.999 152.505 124.39C150.278 126.53 147.347 129.975 147.347 132.528C147.347 135.615 153.065 129.811 155.924 126.524C153.065 130.097 147.061 138.017 145.917 141.105C145.848 141.293 145.798 141.457 145.766 141.597C145.34 143.485 148.21 141.192 150.344 139.21C150.66 138.903 150.951 138.626 151.207 138.389C150.942 138.647 150.651 138.925 150.344 139.21C148.124 141.371 144.674 145.049 143.773 147.252C142.744 149.767 146.966 148.3 149.205 147.252L145.917 157.83C146.673 154.431 147.054 148.114 142.613 149.776L140.464 154.453C140.853 157.715 142.932 161.813 144.488 164.263C143.011 162.5 139.828 158.745 138.913 157.83L138.607 158.209C138.447 160.4 140.494 169.892 144.488 170.981C141.008 170.331 134.845 168.828 132.902 167.195L142.487 179.701C139.389 176.271 132.48 169.723 129.621 170.981C126.762 172.239 129.001 175.508 130.479 176.985C128.906 175.603 125.533 172.983 124.618 173.555C123.666 174.149 127.17 182.172 128.867 185.093C129.507 185.812 129.829 186.238 129.621 186.134C129.477 186.062 129.209 185.681 128.867 185.093C126.869 182.847 121.775 177.743 120.043 176.985C118.223 176.189 116.724 184.565 116.192 188.922C116.741 184.366 116.898 176.155 113.351 178.213L113.039 178.415C109.15 181.16 111.418 183.656 113.039 184.562C108.845 183.847 101.517 181.874 105.748 179.701C101.745 180.94 94.4264 184.533 97.171 188.993C95.0487 187.157 91.6538 183.537 92.5919 181.818C90.0301 183.969 86.3474 188.012 87.1644 191.28C88.3081 195.855 80.8746 185.991 87.1644 181.131C88.1106 180.4 88.5964 179.967 88.731 179.765L88.4481 179.683C87.2073 180.103 82.6564 182.727 79.588 184.562C80.7793 183.37 82.8759 180.731 81.7323 179.701C80.5887 178.672 76.3002 184.324 74.2988 187.278C75.4425 184.419 76.9291 178.358 73.727 176.985C70.5249 175.613 68.1043 178.224 67.2942 179.701C66.7701 178.129 66.5223 174.841 69.7244 174.269C65.2453 173.936 56.3442 174.555 56.5729 179.701C56.204 177.719 54.0208 174.414 60.7185 172.268C60.7655 172.253 61.0174 172.163 61.3499 172.042C60.551 172.197 57.7874 172.847 61.9375 171.6C59.9839 171.362 58.2883 170.667 56.5729 172.268C54.4286 174.269 58.8601 168.265 60.8614 167.836C62.8628 167.408 47.424 169.409 46.5663 173.555C45.8802 176.871 45.7086 175.413 45.7086 174.269C45.518 170.124 46.452 161.632 51.7126 160.832C53.2462 160.598 53.8694 160.303 53.8989 159.984L53.4089 159.413C52.384 158.8 49.9613 158.189 48.1388 157.83C46.2328 157.02 42.0205 156.286 40.4194 159.831C40.9404 156.563 43.42 150.95 49.1777 154.477C49.2125 154.498 49.2474 154.52 49.2824 154.542L48.8808 152.888C46.1826 150.795 42.1368 148.465 40.4194 149.825C41.5159 148.043 43.5636 145.364 45.0952 145.105C41.9752 143.148 37.3682 141.24 35.4596 143.917C35.2886 144.228 35.1307 144.531 34.9873 144.821C35.1172 144.475 35.2759 144.175 35.4596 143.917C37.7313 139.786 42.3052 134.287 45.7086 139.818C44.9462 137.007 42.3636 132.156 38.1322 135.244L42.4207 129.526C38.8847 129.893 31.6221 131.331 29.8717 134.199C29.811 134.312 29.7531 134.422 29.6981 134.529C29.7479 134.417 29.8059 134.307 29.8717 134.199C31.9188 130.409 37.2337 123.729 43.5644 124.951Z" fill="#74BF19"/>
<path d="M43.5644 124.951C42.1348 123.808 38.4181 122.206 34.9873 124.951C37.1316 122.616 41.8489 118.547 43.5644 120.948C41.3724 118.423 36.1595 114.316 32.843 118.089C35.1302 115.373 40.6482 111.256 44.4221 116.517C42.0872 113.706 36.1309 108.483 30.9847 110.084C24.5519 112.086 43.4214 102.222 45.7086 111.085M43.5644 124.951C37.0458 123.693 31.6041 130.812 29.6981 134.529C31.0704 131.441 38.7517 129.907 42.4207 129.526L38.1322 135.244C42.3636 132.156 44.9462 137.007 45.7086 139.818M43.5644 124.951L45.7086 139.818M43.5644 124.951L45.7086 111.085M45.7086 111.085C45.8516 108.988 45.3941 104.623 42.4207 103.937C43.5644 104.176 46.309 104.681 48.1388 104.795M45.7086 111.085L48.1388 104.795M48.1388 104.795C49.9686 104.909 45.0892 99.4105 42.4207 96.6468C45.2798 96.7898 50.8835 97.8476 50.426 100.935M48.1388 104.795L50.426 100.935M50.426 100.935C50.7119 97.3139 50.1687 89.9567 45.7086 89.4993C49.9495 86.6879 57.6307 83.7526 54.4286 94.5026M50.426 100.935L54.4286 94.5026M54.4286 94.5026C56.2394 91.3576 59.0317 84.3244 55.7152 81.3511C51.5696 77.6343 62.5769 84.496 60.7185 89.4993M54.4286 94.5026L60.7185 89.4993M60.7185 89.4993C62.148 84.8295 63.5489 75.2613 57.7165 74.3465C50.426 73.2029 73.727 65.9123 65.7218 85.3537M60.7185 89.4993L65.7218 85.3537M65.7218 85.3537C66.9607 82.3041 70.2962 75.6902 73.727 73.6317C72.5358 74.9659 70.0961 78.635 69.8674 82.6376M65.7218 85.3537L69.8674 82.6376M69.8674 82.6376C73.5364 77.682 80.6173 67.542 79.588 66.6271C78.3015 65.4835 82.8759 70.3438 78.3015 79.2068M69.8674 82.6376L78.3015 79.2068M78.3015 79.2068C81.4464 77.7773 87.336 74.4894 85.7349 72.774C86.5926 73.5364 87.7934 75.6044 85.7349 77.7773M78.3015 79.2068L85.7349 77.7773M85.7349 77.7773C89.4993 77.4914 96.5992 76.0905 94.8838 72.774C96.361 73.6793 99.058 75.9475 98.0287 77.7773M85.7349 77.7773H98.0287M98.0287 77.7773C99.4151 75.611 101.566 71.2388 100.14 69.6033M98.0287 77.7773H103.318M99.6012 69.2002C99.8192 69.304 99.9972 69.44 100.14 69.6033M99.6012 69.2002C97.1996 68.0566 98.9595 68.9924 100.14 69.6033M99.6012 69.2002C101.555 70.868 105.033 74.9182 103.318 77.7773M103.318 77.7773C104.366 75.6635 107.035 71.0694 109.322 69.6033C112.181 67.7707 103.604 76.3478 106.463 77.7773M103.318 77.7773H106.463M106.463 77.7773C109.322 79.2068 115.183 66.6271 113.896 66.6271C112.61 66.6271 119.757 74.2035 112.753 79.2068M106.463 77.7773L112.753 79.2068M112.753 79.2068C115.755 76.6165 121.701 71.0694 121.473 69.6033C120.138 72.7092 117.756 79.4069 118.9 81.3511M112.753 79.2068L118.9 81.3511M118.9 81.3511C120.71 80.0645 124.189 77.1769 123.617 75.9189C124.904 76.9672 126.533 79.9501 122.759 83.4953M122.759 83.4953C127.62 82.7329 137.197 80.5219 136.626 77.7773C137.054 81.7323 136.397 89.4135 130.336 88.4986M122.759 83.4953L118.9 81.6443L130.336 88.4986M130.336 88.4986L143.773 86.7832C139.008 88.0698 130.421 91.4148 134.195 94.5026C134.28 94.5722 134.366 94.6379 134.451 94.6999M130.336 88.4986L134.451 94.6999M138.913 100.935C136.626 100.935 150.349 99.5058 148.205 94.5026C149.062 97.8381 149.119 104.709 142.487 105.51M138.913 100.935L134.451 94.6999M138.913 100.935C138.977 100.935 139.042 100.927 139.107 100.91M142.487 105.51C145.107 106.034 150.52 106.768 151.207 105.51C152.064 103.937 148.062 111.085 145.917 111.085M142.487 105.51L139.107 100.91M142.487 105.51L145.917 111.085M145.917 111.085C148.109 111.275 152.579 110.971 152.922 108.226C151.731 111.466 148.662 118.061 145.917 118.518M145.917 111.085V118.518M145.917 118.518C143.173 118.976 150.587 117.375 154.637 116.517C152.16 117.518 146.947 119.805 145.917 120.948M145.917 118.518V120.948M145.917 120.948L154.637 120.091C151.921 120.424 146.661 121.863 147.347 124.951M145.917 120.948L147.347 124.951M147.347 124.951C148.033 128.039 151.921 125.094 153.78 123.236C151.635 125.046 147.347 129.44 147.347 132.528M147.347 124.951V132.528M147.347 132.528C147.347 135.615 153.065 129.811 155.924 126.524C153.065 130.097 147.061 138.017 145.917 141.105C145.848 141.293 145.798 141.457 145.766 141.597M147.347 132.528L145.766 141.597M143.773 147.252C144.802 144.736 149.158 140.295 151.207 138.389C149.104 140.447 145.278 143.757 145.766 141.597M143.773 147.252C142.744 149.767 146.966 148.3 149.205 147.252L145.917 157.83C146.68 154.399 147.061 147.995 142.487 149.825C137.912 151.654 141.915 160.212 144.488 164.263C143.011 162.5 139.828 158.745 138.913 157.83M143.773 147.252L145.766 141.597M143.773 147.252L138.913 157.83M138.913 157.83C137.769 156.686 139.77 169.695 144.488 170.981C140.488 170.234 132.945 168.36 132.337 166.458M138.913 157.83L132.337 165.978M132.337 165.978C132.284 166.138 132.286 166.298 132.337 166.458M132.337 165.978C133.023 163.92 132.623 165.44 132.337 166.458M132.337 165.978L113.039 178.415M132.337 166.458L142.487 179.701C139.389 176.271 132.48 169.723 129.621 170.981C126.762 172.239 129.001 175.508 130.479 176.985C128.906 175.603 125.533 172.983 124.618 173.555C123.474 174.269 128.763 185.705 129.621 186.134C130.479 186.563 122.33 177.986 120.043 176.985C118.213 176.185 116.708 184.657 116.184 188.993C116.755 184.323 116.927 175.67 113.039 178.415M113.039 178.415C109.15 181.16 111.418 183.656 113.039 184.562C108.845 183.847 101.517 181.874 105.748 179.701C101.745 180.94 94.4264 184.533 97.171 188.993C94.6932 186.849 90.4809 182.275 93.4543 181.131M113.039 178.415L93.4543 181.131M93.4543 181.131C90.9765 182.989 86.2496 187.621 87.1644 191.28C88.3081 195.855 80.8746 185.991 87.1644 181.131C92.1963 177.243 84.2101 181.798 79.588 184.562C80.7793 183.37 82.8759 180.731 81.7323 179.701C80.5887 178.672 76.3002 184.324 74.2988 187.278C75.4425 184.419 76.9291 178.358 73.727 176.985C70.5249 175.613 68.1043 178.224 67.2942 179.701C66.7701 178.129 66.5223 174.841 69.7244 174.269M93.4543 181.131L69.7244 174.269M69.7244 174.269C65.2453 173.936 56.3442 174.555 56.5729 179.701C56.204 177.719 54.0208 174.414 60.7185 172.268M69.7244 174.269L60.8614 167.836M61.9375 171.6C65.784 170.444 60.9417 172.196 60.7185 172.268M61.9375 171.6C56.079 173.36 63.9977 171.341 60.7185 172.268M61.9375 171.6C59.9839 171.362 58.2883 170.667 56.5729 172.268C54.4286 174.269 58.8601 168.265 60.8614 167.836M60.8614 167.836C62.8628 167.408 47.424 169.409 46.5663 173.555C45.8802 176.871 45.7086 175.413 45.7086 174.269C45.518 170.124 46.452 161.632 51.7126 160.832C56.9732 160.031 51.522 158.497 48.1388 157.83C46.2328 157.02 42.0205 156.286 40.4194 159.831C40.9404 156.563 43.42 150.95 49.1777 154.477M49.2824 154.542C56.5729 159.116 43.8503 147.109 40.4194 149.825C41.9442 147.347 45.3084 143.135 46.5663 146.108C43.4214 143.773 36.7027 140.247 34.9873 144.821C37.0363 140.676 42.0491 133.871 45.7086 139.818M49.2824 154.542C49.2474 154.52 49.2125 154.498 49.1777 154.477M49.2824 154.542L45.7086 139.818M134.451 94.6999C138.157 97.3854 142.19 92.9652 143.773 90.357C142.946 93.7591 140.894 100.444 139.107 100.91M60.3059 167.458L49.1777 154.477" stroke="#74BF19"/>
<circle cx="95.0138" cy="127.79" r="47.6714" fill="#1A969C" stroke="white" stroke-width="4"/>
<path d="M76.5348 154.79C75.9481 154.79 75.4415 154.577 75.0148 154.15C74.5881 153.723 74.3748 153.217 74.3748 152.63V100.95C74.3748 100.363 74.5881 99.8566 75.0148 99.4299C75.4415 99.0032 75.9481 98.7899 76.5348 98.7899H92.5348C93.1215 98.7899 93.6281 99.0032 94.0548 99.4299C94.4815 99.8566 94.6948 100.363 94.6948 100.95V138.39H116.855C117.441 138.39 117.948 138.603 118.375 139.03C118.801 139.457 119.015 139.963 119.015 140.55V152.63C119.015 153.217 118.801 153.723 118.375 154.15C117.948 154.577 117.441 154.79 116.855 154.79H76.5348ZM85.6548 103.67L85.0948 104.47V105.35L86.0548 105.19L86.3748 104.47L85.6548 103.67ZM79.4948 105.27C78.9081 105.057 78.4281 104.87 78.0548 104.71C77.7348 104.497 77.3881 104.657 77.0148 105.19C76.6415 105.67 76.5881 106.07 76.8548 106.39C77.1215 106.657 77.4415 107.057 77.8148 107.59C78.0815 107.963 78.3215 108.203 78.5348 108.31C78.8015 108.417 79.1748 108.39 79.6548 108.23C80.0815 108.07 80.3481 107.883 80.4548 107.67C80.5615 107.457 80.6148 107.11 80.6148 106.63C80.6148 106.203 80.5348 105.91 80.3748 105.75C80.2148 105.537 79.9215 105.377 79.4948 105.27ZM85.0148 107.83L84.6148 106.95L83.7348 107.43L83.6548 108.31L84.5348 108.55L85.0148 107.83ZM87.7348 107.11C87.2548 107.057 86.9348 107.19 86.7748 107.51C86.6681 107.723 86.6415 107.91 86.6948 108.07C86.8015 108.177 86.9615 108.31 87.1748 108.47C87.4948 108.737 87.8148 108.817 88.1348 108.71C88.4015 108.55 88.5881 108.417 88.6948 108.31C88.8548 108.203 88.9081 107.99 88.8548 107.67C88.7481 107.35 88.6148 107.19 88.4548 107.19C88.2948 107.19 88.0548 107.163 87.7348 107.11ZM91.8948 109.03L90.6948 108.87L90.0548 109.83L90.8548 110.79L91.9748 110.31L91.8948 109.03ZM84.6148 113.67C84.0281 113.083 83.5215 112.87 83.0948 113.03C82.6681 113.19 82.0815 113.457 81.3348 113.83C80.5881 114.15 80.0015 114.443 79.5748 114.71C79.2015 114.923 79.0681 115.43 79.1748 116.23C79.2815 117.03 79.5215 117.537 79.8948 117.75C80.3215 117.963 80.9615 118.15 81.8148 118.31C82.5081 118.47 82.9881 118.443 83.2548 118.23C83.5215 117.963 83.8415 117.51 84.2148 116.87C84.5881 116.177 84.8815 115.617 85.0948 115.19C85.3081 114.763 85.1481 114.257 84.6148 113.67ZM90.1348 115.35C89.9215 115.137 89.7348 115.003 89.5748 114.95C89.4681 114.843 89.2815 114.843 89.0148 114.95C88.4815 115.217 88.2415 115.617 88.2948 116.15C88.4015 116.79 88.7215 117.163 89.2548 117.27C89.5748 117.323 89.7881 117.27 89.8948 117.11C90.0548 116.95 90.2148 116.737 90.3748 116.47C90.5348 116.097 90.4548 115.723 90.1348 115.35ZM83.8948 121.59C83.5215 121.163 83.1748 120.977 82.8548 121.03C82.5348 121.03 82.1081 121.163 81.5748 121.43C81.0415 121.643 80.6148 121.857 80.2948 122.07C79.9748 122.23 79.8415 122.63 79.8948 123.27C79.9481 123.963 80.0815 124.47 80.2948 124.79C80.5081 125.11 80.9881 125.35 81.7348 125.51C82.4815 125.723 83.0415 125.777 83.4148 125.67C83.8415 125.563 84.2681 125.163 84.6948 124.47C85.0681 123.83 85.1481 123.35 84.9348 123.03C84.7215 122.657 84.3748 122.177 83.8948 121.59ZM92.8548 127.67L91.8948 127.27L91.1748 127.91L91.4948 128.95L92.4548 128.55L92.8548 127.67ZM83.0148 129.67C82.9081 129.083 82.7481 128.683 82.5348 128.47C82.3215 128.257 81.9215 128.123 81.3348 128.07C80.8015 128.017 80.4548 128.15 80.2948 128.47C80.1881 128.737 80.0281 129.11 79.8148 129.59C79.6548 130.017 79.6015 130.337 79.6548 130.55C79.7081 130.763 79.8948 131.03 80.2148 131.35C80.4815 131.563 80.7215 131.617 80.9348 131.51C81.1481 131.403 81.4148 131.243 81.7348 131.03C82.1081 130.763 82.4281 130.603 82.6948 130.55C83.0148 130.443 83.1215 130.15 83.0148 129.67ZM87.0148 133.51L86.2948 133.43L86.0548 134.07L86.5348 134.95L87.1748 134.23L87.0148 133.51ZM78.6948 135.59L78.2148 134.79L77.3348 135.27L77.2548 136.31L78.2148 136.23L78.6948 135.59ZM90.7748 140.31C90.6681 139.35 90.3215 138.817 89.7348 138.71C89.2015 138.603 88.4548 138.443 87.4948 138.23C86.6415 138.017 85.9748 137.91 85.4948 137.91C85.0148 137.91 84.5348 138.283 84.0548 139.03C83.5748 139.883 83.3615 140.577 83.4148 141.11C83.4681 141.643 83.8148 142.257 84.4548 142.95C85.0948 143.643 85.6548 144.017 86.1348 144.07C86.6681 144.123 87.3615 143.963 88.2148 143.59C89.1748 143.163 89.8681 142.763 90.2948 142.39C90.7215 142.017 90.8815 141.323 90.7748 140.31ZM110.135 143.67C109.761 142.657 109.308 142.07 108.775 141.91C108.241 141.697 107.441 141.617 106.375 141.67C105.201 141.723 104.295 141.83 103.655 141.99C103.015 142.097 102.535 142.737 102.215 143.91C101.895 144.977 102.028 145.67 102.615 145.99C103.255 146.31 104.055 146.763 105.015 147.35C105.868 147.937 106.535 148.39 107.015 148.71C107.548 148.977 108.215 148.79 109.015 148.15C109.921 147.403 110.428 146.737 110.535 146.15C110.695 145.563 110.561 144.737 110.135 143.67ZM96.1348 142.47C95.6015 142.097 95.0681 142.15 94.5348 142.63C94.1615 142.897 93.9215 143.137 93.8148 143.35C93.7081 143.51 93.7348 143.777 93.8948 144.15C94.0548 144.577 94.2148 144.843 94.3748 144.95C94.5881 145.057 94.9348 145.11 95.4148 145.11C95.7881 145.11 96.0015 145.03 96.0548 144.87C96.1615 144.657 96.2681 144.363 96.3748 143.99C96.4815 143.617 96.5348 143.323 96.5348 143.11C96.5881 142.897 96.4548 142.683 96.1348 142.47ZM100.535 143.11C100.161 142.683 99.7081 142.577 99.1748 142.79C98.9081 142.897 98.7748 143.057 98.7748 143.27C98.7748 143.43 98.7748 143.67 98.7748 143.99C98.8281 144.47 99.0415 144.763 99.4148 144.87C99.7881 144.923 100.081 145.003 100.295 145.11C100.561 145.217 100.801 145.11 101.015 144.79C101.228 144.417 101.281 144.123 101.175 143.91C101.068 143.697 100.855 143.43 100.535 143.11ZM115.255 143.83L114.855 143.27L114.055 143.59L114.375 144.23L114.935 144.39L115.255 143.83ZM115.655 146.31C115.548 145.99 115.388 145.83 115.175 145.83C115.015 145.83 114.801 145.83 114.535 145.83C114.161 145.83 113.895 146.043 113.735 146.47C113.681 146.79 113.815 147.057 114.135 147.27C114.401 147.483 114.588 147.643 114.695 147.75C114.855 147.857 115.041 147.83 115.255 147.67C115.735 147.297 115.868 146.843 115.655 146.31ZM87.4148 146.79C86.9881 146.47 86.6415 146.31 86.3748 146.31C86.1081 146.257 85.7348 146.363 85.2548 146.63C84.8281 146.95 84.5881 147.27 84.5348 147.59C84.5348 147.857 84.6148 148.23 84.7748 148.71C84.8815 149.137 85.0681 149.377 85.3348 149.43C85.6015 149.43 85.9481 149.43 86.3748 149.43C86.8015 149.43 87.1481 149.43 87.4148 149.43C87.6815 149.43 87.8948 149.217 88.0548 148.79C88.2148 148.31 88.2415 147.937 88.1348 147.67C88.0815 147.403 87.8415 147.11 87.4148 146.79ZM94.2148 147.99C93.8948 147.51 93.6015 147.243 93.3348 147.19C93.0681 147.137 92.6681 147.19 92.1348 147.35C91.6015 147.51 91.2015 147.697 90.9348 147.91C90.7215 148.07 90.6148 148.417 90.6148 148.95C90.6148 149.483 90.7481 149.83 91.0148 149.99C91.2815 150.097 91.6548 150.23 92.1348 150.39C92.5615 150.55 92.9081 150.657 93.1748 150.71C93.4415 150.71 93.7081 150.523 93.9748 150.15C94.3481 149.723 94.5615 149.377 94.6148 149.11C94.6681 148.79 94.5348 148.417 94.2148 147.99ZM100.455 147.51C99.9748 147.297 99.5748 147.403 99.2548 147.83C98.8815 148.257 98.8281 148.657 99.0948 149.03C99.2548 149.297 99.4148 149.43 99.5748 149.43C99.7348 149.43 99.9748 149.403 100.295 149.35C100.721 149.19 100.961 148.923 101.015 148.55C101.068 148.017 100.881 147.67 100.455 147.51ZM114.615 149.75L114.135 149.35L113.415 149.67L113.815 150.39H114.535L114.615 149.75ZM89.2548 150.71L88.2148 150.87V151.75L88.8548 152.23L89.2548 151.59V150.71Z" fill="#FACC15"/>
<g clip-path="url(#paint0_diamond_1_2_clip_path)" data-figma-skip-parse="true"><g transform="matrix(0.239 0 0 0.239 153.561 106.118)"><rect x="0" y="0" width="1004.18" height="87.8661" fill="url(#paint0_diamond_1_2)" opacity="1" shape-rendering="crispEdges"/><rect x="0" y="0" width="1004.18" height="87.8661" transform="scale(1 -1)" fill="url(#paint0_diamond_1_2)" opacity="1" shape-rendering="crispEdges"/><rect x="0" y="0" width="1004.18" height="87.8661" transform="scale(-1 1)" fill="url(#paint0_diamond_1_2)" opacity="1" shape-rendering="crispEdges"/><rect x="0" y="0" width="1004.18" height="87.8661" transform="scale(-1)" fill="url(#paint0_diamond_1_2)" opacity="1" shape-rendering="crispEdges"/></g></g><path d="M179.298 87.1185H188.298V112.618C188.298 116.118 187.498 118.668 185.898 120.268C184.331 121.835 181.798 122.618 178.298 122.618H166.798C163.298 122.618 160.748 121.835 159.148 120.268C157.581 118.668 156.798 116.118 156.798 112.618V87.1185H165.798V112.618C165.798 114.618 166.798 115.618 168.798 115.618H176.298C178.298 115.618 179.298 114.618 179.298 112.618V87.1185ZM216.298 122.118H207.298V94.1185H196.798V87.1185H226.798V94.1185H216.298V122.118ZM254.804 87.1185C258.57 87.1185 261.42 88.1018 263.354 90.0685C265.32 92.0018 266.304 94.8518 266.304 98.6185V110.618C266.304 114.385 265.32 117.252 263.354 119.218C261.42 121.152 258.57 122.118 254.804 122.118H235.304V87.1185H254.804ZM257.304 98.6185C257.304 95.6185 255.804 94.1185 252.804 94.1185H244.304V115.118H252.804C255.804 115.118 257.304 113.618 257.304 110.618V98.6185ZM298.79 96.6185C298.79 94.6185 297.79 93.6185 295.79 93.6185H287.29C285.29 93.6185 284.29 94.6185 284.29 96.6185V112.618C284.29 114.618 285.29 115.618 287.29 115.618H295.79C297.79 115.618 298.79 114.618 298.79 112.618V96.6185ZM307.79 112.618C307.79 116.118 306.99 118.668 305.39 120.268C303.823 121.835 301.29 122.618 297.79 122.618H285.29C281.79 122.618 279.24 121.835 277.64 120.268C276.073 118.668 275.29 116.118 275.29 112.618V96.6185C275.29 93.1185 276.073 90.5851 277.64 89.0185C279.24 87.4185 281.79 86.6185 285.29 86.6185H297.79C301.29 86.6185 303.823 87.4185 305.39 89.0185C306.99 90.5851 307.79 93.1185 307.79 96.6185V112.618ZM340.314 96.6185C340.314 94.6185 339.314 93.6185 337.314 93.6185H328.814C326.814 93.6185 325.814 94.6185 325.814 96.6185V112.618C325.814 114.618 326.814 115.618 328.814 115.618H337.314C339.314 115.618 340.314 114.618 340.314 112.618V96.6185ZM349.314 112.618C349.314 116.118 348.514 118.668 346.914 120.268C345.347 121.835 342.814 122.618 339.314 122.618H326.814C323.314 122.618 320.764 121.835 319.164 120.268C317.597 118.668 316.814 116.118 316.814 112.618V96.6185C316.814 93.1185 317.597 90.5851 319.164 89.0185C320.764 87.4185 323.314 86.6185 326.814 86.6185H339.314C342.814 86.6185 345.347 87.4185 346.914 89.0185C348.514 90.5851 349.314 93.1185 349.314 96.6185V112.618ZM359.337 87.1185H380.337C383.837 87.1185 386.37 87.9185 387.937 89.5185C389.537 91.0851 390.337 93.6185 390.337 97.1185V101.618C390.337 104.385 389.87 106.535 388.937 108.068C388.037 109.602 386.587 110.618 384.587 111.118L390.837 122.118H381.087L375.337 111.618H368.337V122.118H359.337V87.1185ZM381.337 97.1185C381.337 95.1185 380.337 94.1185 378.337 94.1185H368.337V104.618H378.337C380.337 104.618 381.337 103.618 381.337 101.618V97.1185Z" data-figma-gradient-fill="{&#34;type&#34;:&#34;GRADIENT_DIAMOND&#34;,&#34;stops&#34;:[{&#34;color&#34;:{&#34;r&#34;:0.70219475030899048,&#34;g&#34;:0.76770561933517456,&#34;b&#34;:0.77115380764007568,&#34;a&#34;:1.0},&#34;position&#34;:0.50},{&#34;color&#34;:{&#34;r&#34;:0.77659565210342407,&#34;g&#34;:0.87373352050781250,&#34;b&#34;:0.87884610891342163,&#34;a&#34;:1.0},&#34;position&#34;:0.98807597160339355}],&#34;stopsVar&#34;:[{&#34;color&#34;:{&#34;r&#34;:0.70219475030899048,&#34;g&#34;:0.76770561933517456,&#34;b&#34;:0.77115380764007568,&#34;a&#34;:1.0},&#34;position&#34;:0.50},{&#34;color&#34;:{&#34;r&#34;:0.77659565210342407,&#34;g&#34;:0.87373352050781250,&#34;b&#34;:0.87884610891342163,&#34;a&#34;:1.0},&#34;position&#34;:0.98807597160339355}],&#34;transform&#34;:{&#34;m00&#34;:478.0,&#34;m01&#34;:0.0,&#34;m02&#34;:-85.439361572265625,&#34;m10&#34;:4.4408920985006262e-15,&#34;m11&#34;:478.0,&#34;m12&#34;:-132.88153076171875},&#34;opacity&#34;:1.0,&#34;blendMode&#34;:&#34;NORMAL&#34;,&#34;visible&#34;:true}"/>
<path d="M173.549 165.461H155.549V158.461H160.049V137.461H155.549V130.461H173.549V137.461H169.049V158.461H173.549V165.461ZM197.795 154.961L206.295 130.461H216.045L202.795 165.461H192.795L179.545 130.461H189.295L197.795 154.961ZM240.043 165.461H222.043V158.461H226.543V137.461H222.043V130.461H240.043V137.461H235.543V158.461H240.043V165.461ZM280.039 165.461H270.539L258.539 144.461V165.461H249.539V130.461H259.039L271.039 151.461V130.461H280.039V165.461ZM321.063 164.711C313.263 165.545 306.096 165.961 299.563 165.961C296.296 165.961 293.896 165.195 292.363 163.661C290.829 162.128 290.063 159.728 290.063 156.461V140.461C290.063 136.961 290.846 134.428 292.413 132.861C294.013 131.261 296.563 130.461 300.063 130.461H318.063V137.461H302.063C300.063 137.461 299.063 138.461 299.063 140.461V156.461C299.063 157.228 299.279 157.845 299.713 158.311C300.179 158.745 300.796 158.961 301.563 158.961C305.396 158.961 308.896 158.878 312.063 158.711V151.461H305.563V145.461H321.063V164.711Z" fill="#FACC15"/>
<defs>
<clipPath id="paint0_diamond_1_2_clip_path"><path d="M179.298 87.1185H188.298V112.618C188.298 116.118 187.498 118.668 185.898 120.268C184.331 121.835 181.798 122.618 178.298 122.618H166.798C163.298 122.618 160.748 121.835 159.148 120.268C157.581 118.668 156.798 116.118 156.798 112.618V87.1185H165.798V112.618C165.798 114.618 166.798 115.618 168.798 115.618H176.298C178.298 115.618 179.298 114.618 179.298 112.618V87.1185ZM216.298 122.118H207.298V94.1185H196.798V87.1185H226.798V94.1185H216.298V122.118ZM254.804 87.1185C258.57 87.1185 261.42 88.1018 263.354 90.0685C265.32 92.0018 266.304 94.8518 266.304 98.6185V110.618C266.304 114.385 265.32 117.252 263.354 119.218C261.42 121.152 258.57 122.118 254.804 122.118H235.304V87.1185H254.804ZM257.304 98.6185C257.304 95.6185 255.804 94.1185 252.804 94.1185H244.304V115.118H252.804C255.804 115.118 257.304 113.618 257.304 110.618V98.6185ZM298.79 96.6185C298.79 94.6185 297.79 93.6185 295.79 93.6185H287.29C285.29 93.6185 284.29 94.6185 284.29 96.6185V112.618C284.29 114.618 285.29 115.618 287.29 115.618H295.79C297.79 115.618 298.79 114.618 298.79 112.618V96.6185ZM307.79 112.618C307.79 116.118 306.99 118.668 305.39 120.268C303.823 121.835 301.29 122.618 297.79 122.618H285.29C281.79 122.618 279.24 121.835 277.64 120.268C276.073 118.668 275.29 116.118 275.29 112.618V96.6185C275.29 93.1185 276.073 90.5851 277.64 89.0185C279.24 87.4185 281.79 86.6185 285.29 86.6185H297.79C301.29 86.6185 303.823 87.4185 305.39 89.0185C306.99 90.5851 307.79 93.1185 307.79 96.6185V112.618ZM340.314 96.6185C340.314 94.6185 339.314 93.6185 337.314 93.6185H328.814C326.814 93.6185 325.814 94.6185 325.814 96.6185V112.618C325.814 114.618 326.814 115.618 328.814 115.618H337.314C339.314 115.618 340.314 114.618 340.314 112.618V96.6185ZM349.314 112.618C349.314 116.118 348.514 118.668 346.914 120.268C345.347 121.835 342.814 122.618 339.314 122.618H326.814C323.314 122.618 320.764 121.835 319.164 120.268C317.597 118.668 316.814 116.118 316.814 112.618V96.6185C316.814 93.1185 317.597 90.5851 319.164 89.0185C320.764 87.4185 323.314 86.6185 326.814 86.6185H339.314C342.814 86.6185 345.347 87.4185 346.914 89.0185C348.514 90.5851 349.314 93.1185 349.314 96.6185V112.618ZM359.337 87.1185H380.337C383.837 87.1185 386.37 87.9185 387.937 89.5185C389.537 91.0851 390.337 93.6185 390.337 97.1185V101.618C390.337 104.385 389.87 106.535 388.937 108.068C388.037 109.602 386.587 110.618 384.587 111.118L390.837 122.118H381.087L375.337 111.618H368.337V122.118H359.337V87.1185ZM381.337 97.1185C381.337 95.1185 380.337 94.1185 378.337 94.1185H368.337V104.618H378.337C380.337 104.618 381.337 103.618 381.337 101.618V97.1185Z"/></clipPath><linearGradient id="paint0_diamond_1_2" x1="0" y1="0" x2="500" y2="500" gradientUnits="userSpaceOnUse">
<stop offset="0.5" stop-color="#B3C4C5"/>
<stop offset="0.988076" stop-color="#C6DFE0"/>
</linearGradient>
</defs>
</svg>
