<svg width="732" height="464" viewBox="0 0 732 464" fill="none" xmlns="http://www.w3.org/2000/svg">
<g id="mower">
<rect width="732" height="464" fill="white"/>
<g id="back wheel">
<circle id="Ellipse 3" cx="189" cy="300" r="49" fill="black"/>
<circle id="Ellipse 2" cx="189" cy="300" r="28.5" fill="white"/>
<path id="spinner-line" class="spinner-line" d="M186.464 260.366C186.468 260.616 186.471 260.866 186.475 261.116C187.567 261.182 188.705 261.298 189.792 261.449C194.202 262.064 198.497 263.216 202.603 264.819C217.305 270.146 227.256 284.615 228.751 300.237C228.888 301.337 228.996 302.438 229.078 303.584C229.327 303.572 229.577 303.56 229.827 303.548C229.8 302.387 229.744 301.268 229.657 300.146C228.955 284.271 218.75 268.483 203.332 262.957C199.042 261.281 194.468 260.345 189.884 260.252C188.754 260.232 187.579 260.265 186.464 260.366Z" fill="#968686"/>
</g>
<g id="front wheel">
<circle id="Ellipse 3_2" cx="454.75" cy="310.25" r="38.75" fill="black"/>
<circle id="Ellipse 2_2" cx="454.75" cy="310.25" r="22.5383" fill="white"/>
<path id="spinner line_2" d="M424.09 308.017C423.945 308.835 423.845 309.702 423.786 310.541C423.281 318.176 425.781 326.278 431.274 332.011C436.736 337.81 444.686 340.487 452.294 340.795C453.128 340.833 453.971 340.847 454.84 340.839C453.98 340.714 453.152 340.574 452.338 340.417C444.88 339.024 437.768 335.979 432.721 330.631C427.655 325.325 424.761 318.079 424.166 310.541C424.105 309.713 424.078 308.847 424.09 308.017Z" fill="#968686"/>
</g>
<path id="main" d="M262 301C189.164 177.957 137.614 267.16 116 301H108.478C117.891 284.939 138.063 252.637 143.442 251.919V217.797L164.878 212.053V199.458H247.468V244.584H326.37L289.44 180.619L326.37 165.024C332.346 162.266 343.815 159.914 352.981 161.084L485.872 198.722V222.943L406.739 201.739L402.743 208.66L485.872 230.935V262.935C486.64 265.08 522.452 306.389 485.872 278.428C449.292 250.468 424.454 278.428 424.454 278.428L408.839 301H262Z" fill="black"/>
<path id="seat" d="M234.606 193.262H164.399L133.002 143.338" stroke="black" stroke-width="3"/>
<path id="steering wheel" d="M311.87 172.288L301.614 160.131L291.281 167.37L281.652 155.963L307.867 138.229L317.128 149.252L307.867 155.963L318.902 168.89L311.87 172.288Z" fill="black"/>
</g>
</svg>
